<svg width="24" height="24" viewBox="0 0 24 24" fill="none" xmlns="http://www.w3.org/2000/svg">
<path d="M4.67801 5.85989L4.39103 6.81783L4.67801 5.85989ZM2.49293 14.2097L3.14799 14.9653L2.49293 14.2097ZM9.2828 21.6683L9.52495 20.698L9.2828 21.6683ZM19.3218 18.1402L19.6088 17.1822L19.3218 18.1402ZM21.5069 14.2097L22.162 13.4541L21.5069 14.2097ZM20.6048 6.16155L21.3996 5.55477L20.6048 6.16155ZM4.67801 18.1401L4.96498 19.098L4.67801 18.1401ZM3.39505 17.8384L4.18993 17.2316L3.39505 17.8384ZM21.9396 8.52333L21.0088 8.88909L21.9396 8.52333ZM21.5069 9.79029L20.8519 9.03471L21.5069 9.79029ZM14.7167 21.6684L14.9588 22.6386L14.7167 21.6684ZM9.2828 2.33172L9.04065 1.36148L9.2828 2.33172ZM14.9588 1.36139C14.013 1.12536 13.0211 1 11.9999 1V3C12.857 3 13.6863 3.10518 14.4746 3.30188L14.9588 1.36139ZM18.3585 5C17.0994 5 16.1792 4.05067 16.1792 3H14.1792C14.1792 5.26303 16.1058 7 18.3585 7V5ZM19.0347 4.90192C18.8234 4.96524 18.5964 5 18.3585 5V7C18.7922 7 19.2124 6.93652 19.6088 6.81777L19.0347 4.90192ZM22.8703 8.15757C22.5024 7.2216 22.0049 6.3476 21.3996 5.55477L19.8099 6.76834C20.3058 7.41791 20.7107 8.13031 21.0088 8.88909L22.8703 8.15757ZM21.478 12C21.478 11.4382 21.7309 10.9196 22.162 10.5459L20.8519 9.03471C20.018 9.75766 19.478 10.8131 19.478 12H21.478ZM22.162 13.4541C21.7309 13.0804 21.478 12.5618 21.478 12H19.478C19.478 13.1869 20.018 14.2423 20.8519 14.9653L22.162 13.4541ZM21.3996 18.4452C22.0049 17.6524 22.5024 16.7784 22.8703 15.8424L21.0088 15.1109C20.7107 15.8697 20.3058 16.5821 19.8099 17.2317L21.3996 18.4452ZM18.3585 19C18.5964 19 18.8234 19.0348 19.0347 19.0981L19.6088 17.1822C19.2124 17.0635 18.7922 17 18.3585 17V19ZM16.1792 21C16.1792 19.9493 17.0994 19 18.3585 19V17C16.1058 17 14.1792 18.737 14.1792 21H16.1792ZM11.9999 23C13.0211 23 14.013 22.8746 14.9588 22.6386L14.4746 20.6981C13.6864 20.8948 12.857 21 11.9999 21V23ZM9.04065 22.6385C9.9866 22.8746 10.9786 23 11.9999 23V21C11.1427 21 10.3133 20.8948 9.52495 20.698L9.04065 22.6385ZM5.64108 19C6.90015 19 7.82037 19.9493 7.82037 21H9.82037C9.82037 18.737 7.89376 17 5.64108 17V19ZM4.96498 19.098C5.17628 19.0347 5.4032 19 5.64108 19V17C5.20752 17 4.78731 17.0635 4.39103 17.1822L4.96498 19.098ZM1.12961 15.8424C1.49742 16.7783 1.99498 17.6523 2.60018 18.4451L4.18993 17.2316C3.69408 16.582 3.28921 15.8696 2.99103 15.1109L1.12961 15.8424ZM2.52182 12C2.52182 12.5618 2.26894 13.0804 1.83788 13.4541L3.14799 14.9653C3.98188 14.2423 4.52182 13.1869 4.52182 12H2.52182ZM1.83788 10.5459C2.26894 10.9196 2.52182 11.4382 2.52182 12H4.52182C4.52182 10.8131 3.98188 9.7577 3.14799 9.03474L1.83788 10.5459ZM2.60017 5.55487C1.99497 6.34768 1.49742 7.22167 1.12961 8.15762L2.99103 8.88913C3.28921 8.13036 3.69408 7.41797 4.18992 6.76841L2.60017 5.55487ZM5.64108 5C5.4032 5 5.17628 4.96525 4.96498 4.90195L4.39103 6.81783C4.78731 6.93654 5.20753 7 5.64108 7V5ZM7.82037 3C7.82037 4.05067 6.90015 5 5.64108 5V7C7.89376 7 9.82037 5.26303 9.82037 3H7.82037ZM11.9999 1C10.9786 1 9.9866 1.1254 9.04065 1.36148L9.52495 3.30196C10.3133 3.1052 11.1427 3 11.9999 3V1ZM4.18992 6.76841C4.17941 6.78219 4.16618 6.79289 4.15618 6.7987C4.1478 6.80357 4.14968 6.80045 4.16769 6.79688C4.20959 6.78857 4.29084 6.78781 4.39103 6.81783L4.96498 4.90195C4.30525 4.70432 3.25008 4.70349 2.60017 5.55487L4.18992 6.76841ZM2.99103 15.1109C2.99782 15.1281 3.00034 15.1467 2.99996 15.1599C2.99965 15.1711 2.99764 15.1684 3.00441 15.1508C3.01134 15.1327 3.02547 15.1044 3.05107 15.0695C3.07652 15.0347 3.10936 14.9987 3.14799 14.9653L1.83788 13.4541C1.31571 13.9068 0.727525 14.8192 1.12961 15.8424L2.99103 15.1109ZM9.52495 20.698C9.65342 20.7301 9.73726 20.8095 9.77748 20.8707C9.81334 20.9252 9.82037 20.9701 9.82037 21H7.82037C7.82037 21.6155 8.17563 22.4226 9.04065 22.6385L9.52495 20.698ZM3.14799 9.03474C3.10936 9.00125 3.07652 8.9653 3.05107 8.93053C3.02547 8.89555 3.01134 8.86728 3.00441 8.84922C2.99764 8.83158 2.99965 8.82892 2.99996 8.84007C3.00034 8.85333 2.99782 8.87187 2.99103 8.88913L1.12961 8.15762C0.727525 9.18079 1.31571 10.0932 1.83788 10.5459L3.14799 9.03474ZM19.8099 17.2317C19.8204 17.2179 19.8336 17.2072 19.8437 17.2014C19.852 17.1965 19.8502 17.1996 19.8321 17.2032C19.7902 17.2115 19.709 17.2123 19.6088 17.1822L19.0347 19.0981C19.6945 19.2958 20.7497 19.2966 21.3996 18.4452L19.8099 17.2317ZM20.8519 14.9653C20.8905 14.9988 20.9234 15.0347 20.9488 15.0695C20.9744 15.1045 20.9885 15.1328 20.9955 15.1508C21.0022 15.1685 21.0002 15.1711 20.9999 15.16C20.9995 15.1467 21.0021 15.1282 21.0088 15.1109L22.8703 15.8424C23.2724 14.8192 22.6842 13.9068 22.162 13.4541L20.8519 14.9653ZM19.6088 6.81777C19.709 6.78774 19.7902 6.7885 19.8321 6.7968C19.8502 6.80037 19.852 6.80349 19.8437 6.79862C19.8336 6.79281 19.8204 6.78211 19.8099 6.76834L21.3996 5.55477C20.7497 4.70337 19.6945 4.70424 19.0347 4.90192L19.6088 6.81777ZM4.39103 17.1822C4.29084 17.2122 4.20959 17.2114 4.16769 17.2031C4.14968 17.1996 4.14781 17.1964 4.15618 17.2013C4.16618 17.2071 4.17941 17.2178 4.18993 17.2316L2.60018 18.4451C3.25008 19.2965 4.30526 19.2957 4.96498 19.098L4.39103 17.1822ZM21.0088 8.88909C21.0021 8.87183 20.9995 8.85329 20.9999 8.84003C21.0002 8.82888 21.0022 8.83154 20.9955 8.84918C20.9885 8.86724 20.9744 8.89551 20.9488 8.93049C20.9234 8.96526 20.8905 9.00121 20.8519 9.03471L22.162 10.5459C22.6842 10.0932 23.2724 9.18075 22.8703 8.15757L21.0088 8.88909ZM14.1792 21C14.1792 20.9701 14.1863 20.9253 14.2221 20.8707C14.2623 20.8095 14.3461 20.7302 14.4746 20.6981L14.9588 22.6386C15.824 22.4227 16.1792 21.6155 16.1792 21H14.1792ZM9.82037 3C9.82037 3.02988 9.81334 3.07478 9.77748 3.12934C9.73726 3.19054 9.65343 3.2699 9.52495 3.30196L9.04065 1.36148C8.17564 1.57737 7.82037 2.38448 7.82037 3H9.82037ZM14.4746 3.30188C14.3461 3.26982 14.2623 3.19047 14.2221 3.12928C14.1863 3.07474 14.1792 3.02986 14.1792 3H16.1792C16.1792 2.38445 15.8239 1.57726 14.9588 1.36139L14.4746 3.30188Z" fill="#262626"/>
<circle cx="12" cy="12" r="3" stroke="#262626" stroke-width="2"/>
</svg>
